<svg xmlns="http://www.w3.org/2000/svg" viewBox="0 0 9.3 18.63"><defs><style>.cls-1{fill:#34dca2;fill-rule:evenodd;}</style></defs><title>appclouds</title><g id="Capa_2" data-name="Capa 2"><g id="Capa_1-2" data-name="Capa 1"><path class="cls-1" d="M7.61,18.63a1.66,1.66,0,0,0,1.69-1.7V1.69A1.66,1.66,0,0,0,7.61,0H1.69A1.66,1.66,0,0,0,0,1.69V16.93a1.66,1.66,0,0,0,1.69,1.7Zm-3-.71a.85.85,0,1,1,.85-.85.84.84,0,0,1-.85.85ZM3.38,1c0-.1,0-.18.11-.18H5.8c.06,0,.12.08.12.18v0c0,.11-.05.19-.12.19H3.49c-.06,0-.11-.08-.11-.19ZM.85,2.11H8.45V15.64H.85Zm0,0"/></g></g></svg>