<svg xmlns="http://www.w3.org/2000/svg" viewBox="0 0 31.71 28.68"><defs><style>.cls-1{fill:#333;}</style></defs><title>carrito</title><g id="Capa_2" data-name="Capa 2"><g id="Capa_1-2" data-name="Capa 1"><g id="_Grupo_" data-name="&lt;Grupo&gt;"><g id="_Grupo_2" data-name="&lt;Grupo&gt;"><path class="cls-1" d="M28.83,22.05H10.48L6.81,8.73,7,8.68V8.05H31.71Zm-17.59-1H28l2.47-12H7.94Z"/></g><g id="_Grupo_3" data-name="&lt;Grupo&gt;"><polygon class="cls-1" points="6.58 9.28 4.33 1.1 0 1.1 0 0 5.17 0 7.64 8.98 6.58 9.28"/></g><path id="_Trazado_" data-name="&lt;Trazado&gt;" class="cls-1" d="M28.69,26.08a2.6,2.6,0,1,0-2.6,2.6,2.6,2.6,0,0,0,2.6-2.6"/><path id="_Trazado_2" data-name="&lt;Trazado&gt;" class="cls-1" d="M15.8,26.08a2.6,2.6,0,1,0-2.6,2.6,2.61,2.61,0,0,0,2.6-2.6"/></g></g></g></svg>