<svg xmlns="http://www.w3.org/2000/svg" viewBox="0 0 14.8 29.65"><defs><style>.cls-1{fill:#ccc;fill-rule:evenodd;}</style></defs><title>celulares</title><g id="Capa_2" data-name="Capa 2"><g id="Capa_1-2" data-name="Capa 1"><path class="cls-1" d="M12.11,29.65a2.64,2.64,0,0,0,2.69-2.7V2.69A2.64,2.64,0,0,0,12.11,0H2.69A2.64,2.64,0,0,0,0,2.69V26.95a2.64,2.64,0,0,0,2.69,2.7ZM7.4,28.52a1.35,1.35,0,1,1,1.35-1.35A1.34,1.34,0,0,1,7.4,28.52Zm-2-26.88c0-.16.08-.29.18-.29H9.24c.1,0,.19.13.19.29v.08c0,.17-.09.3-.19.3H5.56c-.1,0-.18-.13-.18-.3Zm-4,1.72H13.45V24.89H1.35Zm0,0"/></g></g></svg>