<svg xmlns="http://www.w3.org/2000/svg" viewBox="0 0 29.24 25.92"><defs><style>.cls-1{fill:#333;}</style></defs><title>corazon</title><g id="Capa_2" data-name="Capa 2"><g id="Capa_1-2" data-name="Capa 1"><path class="cls-1" d="M14.87,25.92l-.29-.19C13.88,25.28-2.7,14.42.38,5.16c1.33-4,4-5,5.92-5.14a12.18,12.18,0,0,1,8.64,3.54C16.11,2.52,19.47-.1,23,.3a7.21,7.21,0,0,1,5.28,3.75c5.19,8.3-12.38,21.13-13.13,21.67ZM6.85,1,6.37,1c-2.42.17-4.11,1.67-5,4.46C-1.3,13.38,12.65,23.21,14.84,24.7,17.07,23,31.8,11.57,27.43,4.58A6.27,6.27,0,0,0,22.89,1.3c-3.8-.43-7.64,3.34-7.68,3.37l-.49.49-.31-.62C13.94,3.6,10.32,1,6.85,1Z"/></g></g></svg>