<svg xmlns="http://www.w3.org/2000/svg" viewBox="0 0 17 29"><defs><style>.cls-1{fill:#ccc;}</style></defs><title>electro</title><g id="Capa_2" data-name="Capa 2"><g id="Capa_1-2" data-name="Capa 1"><path class="cls-1" d="M16.53,0H.47A.47.47,0,0,0,0,.47V26.68c0,.26.21.47.47.32H.8l1.47,1.58A.92.92,0,0,1,2.6,29H14.4a.92.92,0,0,1,.33-.42L16.2,27h.33a.47.47,0,0,0,.47-.46V.46A.47.47,0,0,0,16.53,0ZM14.21,28H2.79l-.64-1h12.7ZM16,26H1V11H16Zm0-16H1V1H16Zm.06,0"/><rect class="cls-1" x="14" y="6" width="1" height="2"/><rect class="cls-1" x="14" y="13" width="1" height="2"/></g></g></svg>