<svg xmlns="http://www.w3.org/2000/svg" viewBox="0 0 20 20"><defs><style>.cls-1{fill:#1a1a1a;}</style></defs><title>facebbok</title><g id="Capa_2" data-name="Capa 2"><g id="Capa_1-2" data-name="Capa 1"><path class="cls-1" d="M8.52,15.89h2.3a.36.36,0,0,0,.36-.36V10.36h1.19a.36.36,0,0,0,.36-.32l.2-2a.36.36,0,0,0-.36-.39h-1.4V6.9c0-.16.05-.18.13-.18h1.24a.36.36,0,0,0,.36-.36V4.47a.36.36,0,0,0-.36-.36h-1.7a2.51,2.51,0,0,0-2.16,1,2.94,2.94,0,0,0-.52,1.71v.91H7.43A.36.36,0,0,0,7.07,8v2a.36.36,0,0,0,.36.36h.74v5.17a.36.36,0,0,0,.36.36ZM7.79,9.65V8.41h.74A.36.36,0,0,0,8.88,8V6.79A2.27,2.27,0,0,1,9.26,5.5a1.84,1.84,0,0,1,1.58-.68h1.35V6h-.88a.82.82,0,0,0-.84.89V8.05a.36.36,0,0,0,.36.36h1.36L12,9.65H10.82a.36.36,0,0,0-.36.36v5.17H8.88V10a.36.36,0,0,0-.36-.36Zm0,0"/><path class="cls-1" d="M17.77,3.7a.36.36,0,1,0-.55.45A9.29,9.29,0,0,1,3.81,16.92a.36.36,0,1,0-.48.53A10,10,0,0,0,17.77,3.7Zm0,0"/><path class="cls-1" d="M.71,10A9.29,9.29,0,0,1,16.19,3.08a.36.36,0,1,0,.48-.53A10,10,0,0,0,2.23,16.3a.36.36,0,0,0,.55-.45A9.31,9.31,0,0,1,.71,10Zm0,0"/></g></g></svg>