<svg xmlns="http://www.w3.org/2000/svg" viewBox="0 0 30.77 29.46"><defs><style>.cls-1{fill:#ccc;}</style></defs><title>hombre</title><g id="Capa_2" data-name="Capa 2"><g id="Capa_1-2" data-name="Capa 1"><path class="cls-1" d="M30.65,10.4c-.33-.67-3.31-6.6-4.87-7.66A44.79,44.79,0,0,0,20.45.08L20.27,0l-.19,0a35.26,35.26,0,0,1-4.69.6A35.3,35.3,0,0,1,10.7,0l-.19,0-.18.08A44.79,44.79,0,0,0,5,2.74C3.44,3.8.46,9.73.12,10.4L0,10.65l.1.26c0,.11,1,2.66,5.41,3.25l.38.05,1.34-1.87c.6,3.46-.26,11.6-1.33,15.52l-.15.56.55.2c.09,0,2.35.84,9.09.84s9-.81,9.09-.84l.55-.2-.15-.56c-1.07-3.92-1.93-12.06-1.33-15.52l1.34,1.87.38-.05c4.38-.58,5.37-3.14,5.41-3.25l.1-.26ZM18.9,1.54A4.46,4.46,0,0,1,15.39,3.1a4.46,4.46,0,0,1-3.52-1.56,25.88,25.88,0,0,0,3.52.37,25.89,25.89,0,0,0,3.52-.37Zm9.82,9.89a6.38,6.38,0,0,1-3.25,1.41L23.21,9.69l-.48.93c-.46.9-.92,3.06-.53,8.28a59,59,0,0,0,1.27,8.67,38.63,38.63,0,0,1-8.09.62,40.48,40.48,0,0,1-8.09-.61A59,59,0,0,0,8.57,18.9C9,13.68,8.5,11.52,8,10.62l-.48-.93L5.3,12.83c-2.59-.44-3.58-1.64-3.89-2.15,1.24-2.45,3.37-6.26,4.3-6.89a38.15,38.15,0,0,1,4.57-2.3,6.07,6.07,0,0,0,.88,1.16,5.73,5.73,0,0,0,4.23,1.73,5.73,5.73,0,0,0,4.23-1.73,6.07,6.07,0,0,0,.88-1.16,38.21,38.21,0,0,1,4.57,2.3c.93.63,3.07,4.44,4.3,6.89a3.47,3.47,0,0,1-.64.74Zm0,0"/></g></g></svg>