<svg xmlns="http://www.w3.org/2000/svg" viewBox="0 0 20 20"><defs><style>.cls-1{fill:#1a1a1a;}</style></defs><title>instagran</title><g id="Capa_2" data-name="Capa 2"><g id="Capa_1-2" data-name="Capa 1"><path class="cls-1" d="M17.77,3.7a.36.36,0,0,0-.55.45A9.29,9.29,0,0,1,3.81,16.92a.36.36,0,1,0-.48.53A10,10,0,0,0,17.77,3.7Zm0,0"/><path class="cls-1" d="M.71,10A9.29,9.29,0,0,1,16.19,3.08a.36.36,0,0,0,.48-.53A10,10,0,0,0,2.23,16.3a.36.36,0,0,0,.55-.45A9.31,9.31,0,0,1,.71,10Zm0,0"/><path class="cls-1" d="M13,4.27H7A2.75,2.75,0,0,0,4.27,7v6A2.75,2.75,0,0,0,7,15.75h6A2.75,2.75,0,0,0,15.75,13V7A2.75,2.75,0,0,0,13,4.27ZM15,13a2,2,0,0,1-2,2H7a2,2,0,0,1-2-2V7A2,2,0,0,1,7,5h6a2,2,0,0,1,2,2Zm0,0"/><path class="cls-1" d="M13.22,6.37a.44.44,0,1,0,.44.44.44.44,0,0,0-.44-.44Zm0,0"/><path class="cls-1" d="M10,7.2A2.81,2.81,0,1,0,12.83,10,2.82,2.82,0,0,0,10,7.2Zm0,4.9A2.09,2.09,0,1,1,12.1,10,2.09,2.09,0,0,1,10,12.1Zm0,0"/></g></g></svg>