<svg xmlns="http://www.w3.org/2000/svg" viewBox="0 0 143.65 36.58"><defs><style>.cls-1{fill:#34dca2;}.cls-2{fill:#1a1a1a;}</style></defs><title>Recurso 2</title><g id="Capa_2" data-name="Capa 2"><g id="Capa_1-2" data-name="Capa 1"><path class="cls-1" d="M27.91,15.35a.61.61,0,0,1,.61-.61H41.12a7.3,7.3,0,0,0-.63-2.83H22.75a.61.61,0,1,1,0-1.21h17c-1-1.56-4.1-3.23-4.1-3.23H25.83a.61.61,0,0,1,0-1.21h9.34A5.12,5.12,0,0,0,32.9,3.42H21.67a.61.61,0,0,1,0-1.21h5.92a11,11,0,0,0-17,5.13l-.63,0a7.35,7.35,0,0,0-5.5,12.23c.11.13.23.26.35.38A11.82,11.82,0,0,1,3.8,22H3.74A1.34,1.34,0,0,0,2.4,23.36a1.36,1.36,0,0,0,0,.16A7.91,7.91,0,0,1,0,24.65l.74,2a9.59,9.59,0,0,0,2.9-1.91h.1a1.34,1.34,0,0,0,1.34-1.34A1.32,1.32,0,0,0,5,22.8a11.88,11.88,0,0,0,.79-2.2c.09-.36.18-.73.26-1.1a14.16,14.16,0,0,1,1-3.2,5.8,5.8,0,0,1,2.74-2.64c-2,1.48-2.51,3.61-2.71,5.79-.06.63-.09,1.25-.11,1.87A7.34,7.34,0,0,0,10,22h24a6.84,6.84,0,0,0,4.86-2H24.54a.61.61,0,1,1,0-1.21H40A7.28,7.28,0,0,0,41,16H28.52A.61.61,0,0,1,27.91,15.35Zm-4-8.94a.63.63,0,1,1-.63.63A.63.63,0,0,1,23.86,6.41Zm-4.8-3.48a.63.63,0,1,1,.63.63A.63.63,0,0,1,19.06,2.93Zm1.68,8.85a.63.63,0,1,1,.63-.63A.63.63,0,0,1,20.74,11.78ZM22.61,20a.63.63,0,1,1,.63-.63A.63.63,0,0,1,22.61,20Zm4-4.11a.63.63,0,1,1,.63-.63A.63.63,0,0,1,26.59,15.89Z"/><path class="cls-2" d="M47.14,12.37v-.06A10.07,10.07,0,0,1,57.47,2.07a10.22,10.22,0,0,1,7.81,3.06l-2.77,3.2a7.31,7.31,0,0,0-5.07-2.24,5.87,5.87,0,0,0-5.75,6.17v.06c0,3.4,2.35,6.23,5.75,6.23a7.15,7.15,0,0,0,5.21-2.32L65.42,19a10.13,10.13,0,0,1-8.12,3.54A10,10,0,0,1,47.14,12.37Z"/><path class="cls-2" d="M68.65,1.56H73V22.22h-4.3Z"/><path class="cls-2" d="M76.26,14.72v-.06a8.22,8.22,0,0,1,16.42-.06v.06a8.22,8.22,0,0,1-16.42.06Zm12.17,0v-.06a4,4,0,0,0-4-4.19,3.89,3.89,0,0,0-3.93,4.13v.06a4,4,0,0,0,4,4.19A3.89,3.89,0,0,0,88.43,14.72Z"/><path class="cls-2" d="M95.68,16.87V7.05H100v8.46c0,2,1,3.09,2.6,3.09s2.69-1,2.69-3.09V7.05h4.3V22.22h-4.3V20.07a5.37,5.37,0,0,1-4.44,2.43C97.57,22.51,95.68,20.36,95.68,16.87Z"/><path class="cls-2" d="M112.74,14.67v-.06c0-5.07,3.31-7.84,6.91-7.84A5.83,5.83,0,0,1,124.38,9V1.56h4.3V22.22h-4.3V20a5.57,5.57,0,0,1-4.73,2.46C116.11,22.51,112.74,19.73,112.74,14.67Zm11.69,0v-.06c0-2.52-1.67-4.19-3.68-4.19S117,12.06,117,14.61v.06c0,2.52,1.7,4.19,3.71,4.19S124.43,17.19,124.43,14.67Z"/><path class="cls-2" d="M131.34,20.21l1.84-2.83A8.58,8.58,0,0,0,138,19.19c1.25,0,1.81-.45,1.81-1.13V18c0-.93-1.47-1.25-3.14-1.76-2.12-.62-4.53-1.61-4.53-4.56v-.06c0-3.09,2.49-4.81,5.55-4.81a10.5,10.5,0,0,1,5.66,1.76l-1.64,3a9,9,0,0,0-4.1-1.42c-1,0-1.58.45-1.58,1v.06c0,.85,1.44,1.25,3.09,1.81,2.12.71,4.59,1.73,4.59,4.5v.06c0,3.37-2.52,4.9-5.8,4.9A10.63,10.63,0,0,1,131.34,20.21Z"/><path class="cls-1" d="M111.42,30.92c2.21.48,3.23,1.29,3.23,2.82,0,1.71-1.42,2.82-3.38,2.82a5.8,5.8,0,0,1-4-1.58l.69-.82a4.72,4.72,0,0,0,3.4,1.4c1.33,0,2.21-.69,2.21-1.7s-.5-1.46-2.58-1.9c-2.28-.5-3.33-1.23-3.33-2.87s1.37-2.72,3.25-2.72a5.17,5.17,0,0,1,3.48,1.22l-.65.86a4.35,4.35,0,0,0-2.86-1.08c-1.29,0-2.11.71-2.11,1.61S109.24,30.46,111.42,30.92Z"/><path class="cls-1" d="M118.14,34.33a1.08,1.08,0,0,0,1.23,1.22,2.29,2.29,0,0,0,1.06-.26v.93a2.74,2.74,0,0,1-1.32.31A1.86,1.86,0,0,1,117,34.47V30.06h-1v-1h1V26.89h1.09V29.1h2.32v1h-2.32Z"/><path class="cls-1" d="M125.51,36.58a3.75,3.75,0,0,1-3.79-3.81,3.81,3.81,0,1,1,3.79,3.81Zm0-6.68a2.69,2.69,0,0,0-2.67,2.84,2.75,2.75,0,0,0,2.7,2.86,2.7,2.7,0,0,0,2.69-2.83A2.76,2.76,0,0,0,125.51,29.9Z"/><path class="cls-1" d="M132.4,36.41h-1.09V29.1h1.09V31a3.13,3.13,0,0,1,3-2v1.17h-.08c-1.6,0-2.9,1.15-2.9,3.35Z"/><path class="cls-1" d="M140,35.63a3,3,0,0,0,2.31-1l.68.61a3.78,3.78,0,0,1-3,1.37,3.64,3.64,0,0,1-3.65-3.82,3.61,3.61,0,0,1,3.51-3.82c2.17,0,3.41,1.73,3.41,3.88a3,3,0,0,1,0,.34h-5.8A2.56,2.56,0,0,0,140,35.63Zm2.14-3.28a2.41,2.41,0,0,0-2.34-2.49,2.52,2.52,0,0,0-2.38,2.49Z"/><path class="cls-1" d="M104.17,32.66,77,32.4l-13.6-.13c-1.14,0-2.27-.06-3.39,0a22.53,22.53,0,0,0-3.35.49,14.08,14.08,0,0,0-3.19,1.1A7.22,7.22,0,0,0,50.8,36a7.27,7.27,0,0,1,2.59-2.18,14.22,14.22,0,0,1,3.19-1.19A22.76,22.76,0,0,1,59.95,32c1.14-.13,2.28-.09,3.41-.11L77,31.81l27.21-.26a.56.56,0,0,1,0,1.11Z"/></g></g></svg>