<svg xmlns="http://www.w3.org/2000/svg" viewBox="0 0 26.41 26.63"><defs><style>.cls-1{fill:#fff;}</style></defs><title>lupa</title><g id="Capa_2" data-name="Capa 2"><g id="Capa_1-2" data-name="Capa 1"><path id="_Trazado_compuesto_" data-name="&lt;Trazado compuesto&gt;" class="cls-1" d="M26,23.44,18.78,16a1.53,1.53,0,0,0,.17-.47,10.11,10.11,0,0,0,1.46-4.18c0-.34.06-.7.07-1A10.31,10.31,0,0,0,20,7,10.09,10.09,0,0,0,17.6,3.09,10.3,10.3,0,0,0,3.12,2.86,10.24,10.24,0,0,0,.31,12.7a9.94,9.94,0,0,0,2.58,4.65,10.2,10.2,0,0,0,7.19,3.1,10.46,10.46,0,0,0,5.67-1.58L16,18.7l7.22,7.43a1.51,1.51,0,0,0,.84.49.48.48,0,0,0,.16,0,1.24,1.24,0,0,0,.53-.14,3.21,3.21,0,0,0,.65-.5l.33-.32a3.13,3.13,0,0,0,.52-.63,1.19,1.19,0,0,0,.14-.59v-.13a1.32,1.32,0,0,0-.45-.88ZM18.17,12.52a8.45,8.45,0,0,1-8.23,6.12A8.63,8.63,0,0,1,4,16.09,8.54,8.54,0,0,1,4.21,4.2a8.57,8.57,0,0,1,6-2.38,8,8,0,0,1,5.9,2.57,8.34,8.34,0,0,1,2.07,8.13Zm0,0"/></g></g></svg>