<svg xmlns="http://www.w3.org/2000/svg" viewBox="0 0 27.9 31.94"><defs><style>.cls-1{fill:#ccc;}</style></defs><title>mujer</title><g id="Capa_2" data-name="Capa 2"><g id="Capa_1-2" data-name="Capa 1"><path class="cls-1" d="M21.45,14.5V12.35a13.11,13.11,0,0,0,.91-5.44,23.09,23.09,0,0,1,1-5.21l.2-.68L19.08,0l-.15.64a5.48,5.48,0,0,1-1,1.84,4.86,4.86,0,0,1-4,1.84A5,5,0,0,1,9,.64L8.82,0,4.38,1l.2.68a23,23,0,0,1,1,5.21,13.1,13.1,0,0,0,.91,5.44v2.14L0,29l.38.32c.12.11,3.14,2.58,13.57,2.58s13.45-2.47,13.57-2.58L27.9,29ZM7.45,14V13h12v1ZM7.8,2a6.89,6.89,0,0,0,1,1.7,6.09,6.09,0,0,0,5,2.31,6.09,6.09,0,0,0,5-2.31,6.89,6.89,0,0,0,1-1.7l1.82.42a20.09,20.09,0,0,0-.81,4.88A11.79,11.79,0,0,1,20,12H7.53a11.72,11.72,0,0,1-.75-4.66A20.09,20.09,0,0,0,6,2.42ZM23.68,28.92A38.11,38.11,0,0,1,13.76,30a38.11,38.11,0,0,1-9.92-1.12,10.94,10.94,0,0,1-2.18-.86L7.46,15H9.88L8.6,20.65l1.27.29,1.34-6h5l1.34,6,1.27-.29L17.58,15h2.47l5.81,13.09a10.92,10.92,0,0,1-2.18.86Zm0,.34"/></g></g></svg>