<svg xmlns="http://www.w3.org/2000/svg" viewBox="0 0 48.28 27.26"><defs><style>.cls-1{fill:#ccc;}</style></defs><title>tecnologia</title><g id="Capa_2" data-name="Capa 2"><g id="Capa_1-2" data-name="Capa 1"><path class="cls-1" d="M48.28,7.74H36.43a13.63,13.63,0,0,0-24.58,0H0V19.52H11.85a13.63,13.63,0,0,0,24.58,0H48.28ZM2,17.51V9.75h9.06a13.64,13.64,0,0,0,0,7.76Zm22.13,7.74A11.62,11.62,0,1,1,35.76,13.63,11.63,11.63,0,0,1,24.14,25.25Zm22.13-7.74H37.21a13.64,13.64,0,0,0,0-7.76h9.06Zm0,0"/><path class="cls-1" d="M23.21,13.27l-3.28,3.28,1.71,1.71,4-4V7.5H23.21Zm0,0"/></g></g></svg>