<svg xmlns="http://www.w3.org/2000/svg" viewBox="0 0 20 20"><defs><style>.cls-1{fill:#1a1a1a;}</style></defs><title>twiter</title><g id="Capa_2" data-name="Capa 2"><g id="Capa_1-2" data-name="Capa 1"><path class="cls-1" d="M17.77,3.7a.36.36,0,1,0-.55.45A9.29,9.29,0,0,1,3.81,16.92a.36.36,0,1,0-.48.53A10,10,0,0,0,17.77,3.7Zm0,0"/><path class="cls-1" d="M.71,10A9.29,9.29,0,0,1,16.19,3.08a.36.36,0,1,0,.48-.53A10,10,0,0,0,2.23,16.3a.36.36,0,0,0,.55-.45A9.31,9.31,0,0,1,.71,10Zm0,0"/><path class="cls-1" d="M16.37,7.27a.36.36,0,0,0-.44-.52h0a2.62,2.62,0,0,0,.21-.48.36.36,0,0,0-.52-.42,4.17,4.17,0,0,1-1.15.47A2.63,2.63,0,0,0,10,8.27s0,.08,0,.12a6.11,6.11,0,0,1-4-2.2.36.36,0,0,0-.59,0,2.63,2.63,0,0,0,0,2.57.36.36,0,0,0-.33.36v0a2.63,2.63,0,0,0,.92,2l0,0a.36.36,0,0,0-.07.34,2.62,2.62,0,0,0,1.53,1.64,4.18,4.18,0,0,1-1.89.44l-.5,0a.36.36,0,0,0-.23.66,6.79,6.79,0,0,0,3.67,1.08,6.54,6.54,0,0,0,5.07-2.23A7,7,0,0,0,15.3,8.54s0-.08,0-.12a4.93,4.93,0,0,0,1.07-1.15ZM14.73,8a.36.36,0,0,0-.15.31c0,.09,0,.18,0,.28A6.32,6.32,0,0,1,13,12.66a5.84,5.84,0,0,1-4.53,2,6.08,6.08,0,0,1-2-.35,4.87,4.87,0,0,0,2.15-1,.36.36,0,0,0-.21-.64,1.91,1.91,0,0,1-1.54-.83,2.66,2.66,0,0,0,.53-.09.36.36,0,0,0,0-.69A1.92,1.92,0,0,1,5.88,9.72a2.64,2.64,0,0,0,.59.09.36.36,0,0,0,.21-.65,1.92,1.92,0,0,1-.79-2.07,6.82,6.82,0,0,0,4.55,2.07.36.36,0,0,0,.37-.44A1.92,1.92,0,0,1,14.06,7a.36.36,0,0,0,.33.11l.4-.1-.21.14a.36.36,0,0,0,.23.66l.17,0-.25.2Zm0,0"/></g></g></svg>