<svg xmlns="http://www.w3.org/2000/svg" viewBox="0 0 30.71 30.93"><defs><style>.cls-1{fill:#333;}</style></defs><title>usuario1</title><g id="Capa_2" data-name="Capa 2"><g id="Capa_1-2" data-name="Capa 1"><g id="_Grupo_" data-name="&lt;Grupo&gt;"><g id="_Grupo_2" data-name="&lt;Grupo&gt;"><path class="cls-1" d="M15.35,16.59c-3.95,0-7.16-3.72-7.16-8.3,0-6.86,3.89-8.3,7.16-8.3s7.16,1.44,7.16,8.3C22.51,12.87,19.3,16.59,15.35,16.59ZM15.35,1C11.21,1,9.19,3.39,9.19,8.3c0,4,2.76,7.3,6.16,7.3s6.16-3.27,6.16-7.3C21.51,3.39,19.5,1,15.35,1Z"/></g><g id="_Grupo_3" data-name="&lt;Grupo&gt;"><path class="cls-1" d="M28.53,30.93H2.18a2.18,2.18,0,0,1-2-3.07L3.55,20.3a2.18,2.18,0,0,1,1-1l5.21-2.71a.83.83,0,0,1,.89.08,7.85,7.85,0,0,0,9.42,0,.84.84,0,0,1,.9-.08l5.21,2.71a2.18,2.18,0,0,1,1,1l3.36,7.57a2.18,2.18,0,0,1-2,3.07ZM10.12,17.47,5,20.13a1.19,1.19,0,0,0-.53.57L1.1,28.27a1.18,1.18,0,0,0,1.08,1.66H28.53a1.18,1.18,0,0,0,1.08-1.66h0L26.25,20.7a1.19,1.19,0,0,0-.53-.57l-5.12-2.67A8.86,8.86,0,0,1,10.12,17.47Z"/></g></g></g></g></svg>