<svg xmlns="http://www.w3.org/2000/svg" viewBox="0 0 20 20"><defs><style>.cls-1{fill:#1a1a1a;}</style></defs><title>whatsapp</title><g id="Capa_2" data-name="Capa 2"><g id="Capa_1-2" data-name="Capa 1"><path class="cls-1" d="M17.74,3.67l-.45.45A9.37,9.37,0,0,1,4.45,17.55a.33.33,0,0,0-.32,0L.93,19,2.36,15.7a.31.31,0,0,0,0-.31A9.37,9.37,0,0,1,16.1,2.9l.45-.45a10,10,0,0,0-13.62.48A10,10,0,0,0,1.72,15.61L0,19.56A.31.31,0,0,0,.45,20l3.78-1.8a10,10,0,0,0,12.84-1.1,10,10,0,0,0,.67-13.4Z"/><path class="cls-1" d="M12.13,11.13l-1,1A6,6,0,0,1,7.82,8.76l1-1a.31.31,0,0,0,.09-.28L8.4,5.15a.31.31,0,0,0-.25-.25L6.53,4.6H6.4a2.31,2.31,0,0,0-1.12.62,2.51,2.51,0,0,0-.59,2.26,11.36,11.36,0,0,0,.77,2.64A.31.31,0,0,0,6,9.88,10.71,10.71,0,0,1,5.3,7.39a1.9,1.9,0,0,1,.42-1.72,1.69,1.69,0,0,1,.76-.44l1.35.25.4,2-1,1a.31.31,0,0,0-.06.35,6.78,6.78,0,0,0,3.94,3.94.31.31,0,0,0,.34-.07l1-1,2,.4.25,1.35a1.69,1.69,0,0,1-.44.76,1.9,1.9,0,0,1-1.72.42,9.41,9.41,0,0,1-4.91-2.3l0,0a6.83,6.83,0,0,1-1-1.32.31.31,0,1,0-.54.32,7.46,7.46,0,0,0,1.1,1.44l0,0a10.07,10.07,0,0,0,5.26,2.47,2.77,2.77,0,0,0,1.88-.29,2.07,2.07,0,0,0,.38-.3,2.31,2.31,0,0,0,.62-1.12.31.31,0,0,0,0-.13L15,11.77a.31.31,0,0,0-.25-.25L12.41,11A.31.31,0,0,0,12.13,11.13Z"/></g></g></svg>