<svg xmlns="http://www.w3.org/2000/svg" viewBox="0 0 20 20"><defs><style>.cls-1{fill:#1a1a1a;}</style></defs><title>youtube</title><g id="Capa_2" data-name="Capa 2"><g id="Capa_1-2" data-name="Capa 1"><path class="cls-1" d="M17.77,3.7a.36.36,0,1,0-.55.45A9.29,9.29,0,0,1,3.81,16.92a.36.36,0,1,0-.48.53A10,10,0,0,0,17.77,3.7Zm0,0"/><path class="cls-1" d="M.71,10A9.29,9.29,0,0,1,16.19,3.08a.36.36,0,1,0,.48-.53A10,10,0,0,0,2.23,16.3a.36.36,0,0,0,.55-.45A9.31,9.31,0,0,1,.71,10Zm0,0"/><path class="cls-1" d="M16.15,7.46A3.08,3.08,0,0,0,15.59,6a1.92,1.92,0,0,0-1.33-.64h-.08c-1.64-.13-4.12-.13-4.14-.13h0s-2.5,0-4.14.13H5.81A1.92,1.92,0,0,0,4.47,6a3.08,3.08,0,0,0-.56,1.44h0A20.31,20.31,0,0,0,3.8,9.54v1a20.31,20.31,0,0,0,.12,2.07h0A3.07,3.07,0,0,0,4.48,14a2,2,0,0,0,1.36.63l.14,0H6c.95.1,3.91.13,4,.13s2.5,0,4.14-.13h.09A1.92,1.92,0,0,0,15.59,14a3.08,3.08,0,0,0,.56-1.44h0a20.4,20.4,0,0,0,.12-2.07v-1a20.41,20.41,0,0,0-.12-2.07Zm-.59,3c0,1-.11,1.93-.11,2a2.43,2.43,0,0,1-.37,1h0a1.22,1.22,0,0,1-.87.41h-.07c-1.61.12-4.06.13-4.08.13s-3,0-4-.12l-.17,0a1.36,1.36,0,0,1-.92-.4H5a2.37,2.37,0,0,1-.37-1c0-.06-.12-1-.12-2v-1c0-1,.11-1.93.12-2a2.44,2.44,0,0,1,.37-1H5a1.22,1.22,0,0,1,.88-.41H6C7.57,6,10,6,10,6h0s2.47,0,4.08.13h.07a1.22,1.22,0,0,1,.88.41h0a2.38,2.38,0,0,1,.38,1c0,.06.11,1,.11,2Zm0,0"/><path class="cls-1" d="M12.43,9.71,8.75,7.51a.36.36,0,0,0-.54.31v4.41a.36.36,0,0,0,.54.31l3.68-2.21a.36.36,0,0,0,0-.61Zm-3.5,1.88V8.44L11.55,10Zm0,0"/></g></g></svg>